<svg width="260" height="260" viewBox="0 0 260 260" fill="none" xmlns="http://www.w3.org/2000/svg">
<g clip-path="url(#clip0_12_3931)">
<path d="M203.937 151.228C202.826 155.004 198.854 157.036 195.057 155.997C193.443 155.556 191.838 155.093 190.24 154.608C189.05 154.246 187.864 153.862 186.683 153.454C182.439 151.988 180.706 147.127 181.818 142.776C182.01 142.026 182.181 141.27 182.333 140.509C183.014 137.087 183.354 133.584 183.354 130C183.354 115.222 178.156 102.635 167.761 92.2393C157.365 81.8437 144.778 76.6458 130 76.6458C126.507 76.6458 123.026 76.9755 119.558 77.6349C118.777 77.7835 118.002 77.9534 117.233 78.1446C112.876 79.2285 108.007 77.4978 106.55 73.2504C106.162 72.1202 105.799 70.9911 105.46 69.8631C104.988 68.2917 104.542 66.7018 104.123 65.0934C103.147 61.3492 105.187 57.4776 108.897 56.3767C111.26 55.6754 113.669 55.0987 116.126 54.6466C120.806 53.785 125.522 53.3542 130.271 53.3542C151.604 53.3542 169.711 60.7952 184.594 75.6773C199.476 90.5594 206.917 108.667 206.917 130C206.917 134.749 206.486 139.464 205.624 144.145C205.182 146.551 204.619 148.912 203.937 151.228ZM126.354 30.3333C121.936 30.3333 118.354 26.7516 118.354 22.3333V7.18751C118.354 2.76923 121.936 -0.8125 126.354 -0.8125H133.646C138.064 -0.8125 141.646 2.76922 141.646 7.1875V22.3333C141.646 26.7516 138.064 30.3333 133.646 30.3333H126.354ZM126.354 260.812C121.936 260.812 118.354 257.231 118.354 252.812V237.667C118.354 233.248 121.936 229.667 126.354 229.667H133.646C138.064 229.667 141.646 233.248 141.646 237.667V252.812C141.646 257.231 138.064 260.812 133.646 260.812H126.354ZM214.386 62.2241C211.259 65.3605 206.179 65.3593 203.053 62.2214L197.817 56.9652C194.693 53.8288 194.71 48.7516 197.855 45.6361L208.608 34.9839C211.722 31.8984 216.74 31.8945 219.859 34.975L225.072 40.1225C228.226 43.2376 228.246 48.3238 225.116 51.4632L214.386 62.2241ZM51.3923 225.016C48.2777 228.102 43.2601 228.106 40.1407 225.025L34.9284 219.878C31.774 216.762 31.7544 211.676 34.8846 208.537L45.6139 197.776C48.741 194.64 53.8212 194.641 56.9469 197.779L62.1824 203.035C65.3066 206.171 65.2897 211.248 62.1448 214.364L51.3923 225.016ZM237.667 141.646C233.248 141.646 229.667 138.064 229.667 133.646V126.354C229.667 121.936 233.248 118.354 237.667 118.354H252.812C257.231 118.354 260.812 121.936 260.812 126.354V133.646C260.812 138.064 257.231 141.646 252.812 141.646H237.667ZM7.18751 141.646C2.76923 141.646 -0.8125 138.064 -0.8125 133.646V126.354C-0.8125 121.936 2.76922 118.354 7.1875 118.354H22.3333C26.7516 118.354 30.3333 121.936 30.3333 126.354V133.646C30.3333 138.064 26.7516 141.646 22.3333 141.646H7.18751ZM219.878 225.072C216.762 228.226 211.676 228.246 208.537 225.115L197.841 214.451C194.704 211.324 194.706 206.243 197.844 203.118L203.099 197.882C206.236 194.758 211.313 194.775 214.429 197.92L225.016 208.608C228.102 211.722 228.106 216.74 225.025 219.859L219.878 225.072ZM56.9652 62.1824C53.8288 65.3066 48.7516 65.2897 45.636 62.1448L34.9839 51.3923C31.8984 48.2777 31.8945 43.26 34.975 40.1407L40.1225 34.9284C43.2376 31.774 48.3238 31.7544 51.4632 34.8846L62.224 45.6139C65.3603 48.741 65.3591 53.8213 62.2212 56.9469L56.9652 62.1824Z" fill="#74C4FD"/>
<path d="M154.402 161.01C142.97 154.444 132.563 146.47 123.182 137.089C113.801 127.708 105.827 117.301 99.2604 105.869C94.6182 97.7878 90.7576 89.2615 87.6788 80.2904C85.8349 74.9175 79.2356 72.6063 75.2103 76.6143C70.0068 81.7956 65.7166 87.7473 61.6853 95.7807C55.5276 108.052 53.625 117.887 53.625 130C53.625 151.333 61.0661 169.441 75.9482 184.323C90.8303 199.205 108.938 206.646 130.271 206.646C142.384 206.646 153.79 203.959 164.49 198.586C171.621 195.004 177.979 190.469 183.563 184.979C187.614 180.996 185.353 174.436 179.98 172.592C171.009 169.513 162.483 165.653 154.402 161.01Z" fill="#699EE3"/>
</g>
<defs>
<clipPath id="clip0_12_3931">
<rect width="260" height="260" fill="white"/>
</clipPath>
</defs>
</svg>
