<?xml version="1.0" standalone="no"?>
<!DOCTYPE svg PUBLIC "-//W3C//DTD SVG 20010904//EN"
 "http://www.w3.org/TR/2001/REC-SVG-20010904/DTD/svg10.dtd">
<svg version="1.0" xmlns="http://www.w3.org/2000/svg"
 width="700.000000pt" height="700.000000pt" viewBox="0 0 700.000000 700.000000"
 preserveAspectRatio="xMidYMid meet">
<metadata>
Created by potrace 1.14, written by Peter Selinger 2001-2017
</metadata>
<g transform="translate(0.000000,700.000000) scale(0.100000,-0.100000)"
fill="#000000" stroke="none">
<path d="M3280 6983 c-32 -22 -45 -39 -72 -88 -19 -37 -21 -54 -20 -290 0
-264 3 -283 48 -343 48 -62 91 -75 251 -77 90 -1 155 3 177 10 55 19 102 60
126 111 22 44 23 59 24 282 1 250 -6 301 -49 353 -47 57 -54 59 -265 59 -168
0 -199 -2 -220 -17z"/>
<path d="M1205 6119 c-71 -13 -89 -25 -193 -130 -116 -116 -138 -158 -129
-239 3 -27 13 -63 22 -81 24 -46 322 -346 375 -377 35 -21 57 -26 105 -26 75
1 111 22 219 130 104 104 126 139 131 204 6 94 -9 119 -198 308 -95 95 -183
179 -197 187 -43 22 -94 32 -135 24z"/>
<path d="M5705 6113 c-11 -3 -33 -15 -50 -26 -56 -38 -336 -322 -363 -366 -31
-54 -35 -137 -9 -192 21 -41 198 -224 239 -245 45 -23 103 -27 161 -10 48 14
68 31 227 191 105 105 182 190 192 213 32 72 24 153 -20 212 -39 52 -183 189
-217 207 -30 16 -125 26 -160 16z"/>
<path d="M3457 5564 c-1 -1 -45 -5 -97 -8 -133 -9 -223 -22 -322 -47 -21 -5
-57 -14 -79 -19 -76 -19 -119 -55 -146 -119 -22 -53 -18 -105 22 -236 41 -136
68 -182 126 -214 66 -37 134 -38 294 -5 95 20 377 23 467 5 29 -6 71 -13 93
-17 62 -9 242 -71 320 -111 207 -105 392 -263 527 -448 32 -44 62 -84 66 -90
25 -32 105 -203 131 -280 57 -170 79 -319 75 -509 -2 -105 -7 -149 -30 -266
-21 -110 -19 -162 10 -226 30 -65 70 -93 186 -129 185 -58 225 -62 294 -30 67
32 98 90 131 250 34 163 39 227 40 440 0 188 -3 231 -29 397 -10 59 -49 207
-78 293 -74 217 -218 464 -377 649 -36 41 -179 184 -226 226 -323 285 -743
458 -1180 486 -92 6 -215 11 -218 8z"/>
<path d="M2082 4975 c-18 -8 -50 -31 -71 -52 -267 -268 -500 -739 -546 -1103
-26 -204 -26 -438 -1 -620 13 -93 20 -128 47 -238 99 -405 350 -788 699 -1072
30 -25 57 -48 60 -51 13 -14 212 -140 275 -174 198 -105 434 -179 675 -210
193 -25 427 -23 600 5 30 5 71 12 90 15 62 10 214 53 306 86 107 38 330 151
416 210 35 23 79 53 98 66 19 14 37 27 40 31 3 4 26 24 52 45 66 53 131 117
152 148 28 45 28 120 0 178 -33 65 -71 93 -190 137 -293 107 -533 227 -838
419 -45 28 -231 162 -248 177 -7 8 -33 29 -58 48 -104 80 -186 155 -330 300
-408 408 -724 900 -916 1428 -44 121 -59 149 -101 189 -55 52 -143 67 -211 38z"/>
<path d="M170 3810 c-57 -7 -119 -42 -148 -84 -21 -31 -22 -42 -22 -229 l0
-196 32 -36 c63 -73 85 -78 338 -79 124 -1 245 2 270 6 61 11 114 49 147 105
27 46 28 53 29 193 1 155 -5 186 -51 246 -13 18 -45 42 -71 55 -44 21 -60 22
-263 23 -119 1 -236 -1 -261 -4z"/>
<path d="M6377 3809 c-73 -8 -127 -43 -164 -106 -27 -47 -28 -51 -28 -203 0
-152 1 -156 28 -203 30 -51 86 -94 133 -104 47 -9 476 -9 514 0 43 11 115 64
129 95 7 14 11 100 11 215 0 228 -2 234 -105 289 -37 19 -56 21 -250 22 -115
1 -236 -2 -268 -5z"/>
<path d="M1318 1731 c-43 -14 -65 -33 -240 -208 -197 -196 -216 -230 -194
-338 10 -50 39 -88 141 -188 93 -92 120 -107 190 -114 87 -8 125 16 307 194
88 87 171 178 186 202 33 56 35 139 5 197 -23 44 -168 194 -225 231 -40 27
-123 39 -170 24z"/>
<path d="M5580 1730 c-19 -3 -49 -14 -65 -22 -48 -25 -232 -222 -239 -255 -14
-69 -15 -89 -4 -132 10 -40 33 -68 187 -225 120 -121 190 -185 219 -198 52
-23 124 -25 174 -4 44 19 223 197 247 246 25 52 26 121 2 175 -24 55 -325 366
-381 394 -43 22 -94 30 -140 21z"/>
<path d="M3336 805 c-56 -19 -102 -60 -127 -112 -22 -46 -23 -56 -22 -298 1
-282 4 -296 72 -358 l41 -37 200 0 199 0 36 32 c73 64 78 84 79 347 1 255 -5
299 -48 355 -50 66 -92 80 -253 81 -90 1 -154 -3 -177 -10z"/>
</g>
</svg>
